<svg width="256" height="52" viewBox="0 0 256 52" fill="none" xmlns="http://www.w3.org/2000/svg">
<path d="M43.936 51H50.056L28.24 1.536H22.12L0.304 51H6.424L11.392 39.768H38.968L43.936 51ZM13.696 34.44L25.216 8.448L36.664 34.44H13.696ZM59.1196 51H82.6636C91.2316 51 97.3516 45.384 97.3516 37.464C97.3516 32.064 94.0396 27.6 88.3516 24.72C92.8156 22.128 95.4076 19.104 95.4076 13.848C95.4076 6.648 89.7916 1.536 81.7996 1.536H59.1196V51ZM64.7356 22.488V6.648H80.3596C85.8316 6.648 89.7196 9.96 89.7196 14.568C89.7196 19.176 85.8316 22.488 80.3596 22.488H64.7356ZM64.7356 45.888V27.6H81.2236C87.3436 27.6 91.6636 31.416 91.6636 36.744C91.6636 42.072 87.3436 45.888 81.2236 45.888H64.7356ZM130.518 51.864C144.27 51.864 155.79 40.128 155.79 26.232C155.79 12.336 144.27 0.671996 130.518 0.671996C116.838 0.671996 105.174 12.336 105.174 26.232C105.174 40.128 116.838 51.864 130.518 51.864ZM130.518 46.68C119.862 46.68 110.862 37.32 110.862 26.232C110.862 15.216 119.862 5.856 130.518 5.856C141.174 5.856 150.102 15.216 150.102 26.232C150.102 37.32 141.174 46.68 130.518 46.68ZM186.364 51.864C198.46 51.864 207.028 43.008 207.028 30.48V1.536H201.412V30.48C201.412 39.984 195.148 46.752 186.364 46.752C177.58 46.752 171.316 39.984 171.316 30.48V1.536H165.7V30.48C165.7 43.008 174.268 51.864 186.364 51.864ZM233.099 51H238.715V6.864H255.347V1.536H216.467V6.864H233.099V51Z" fill="black"/>
</svg>
