<svg
    width="26"
    height="21"
    viewBox="0 0 26 21"
    fill="none"
    xmlns="http://www.w3.org/2000/svg"
>
    <path
        d="M22.044 2.39519C22.0367 2.38106 22.0248 2.36998 22.0102 2.36394C20.3245 1.58308 18.5455 1.02626 16.7179 0.70742C16.7013 0.704304 16.6842 0.706552 16.6689 0.713846C16.6536 0.721139 16.641 0.733106 16.6329 0.748046C16.3907 1.19193 16.1708 1.64786 15.974 2.11412C14.004 1.81219 12.0001 1.81219 10.03 2.11412C9.832 1.64668 9.60858 1.19063 9.36078 0.748046C9.35228 0.733431 9.33962 0.721739 9.32444 0.714493C9.30927 0.707247 9.29228 0.704783 9.2757 0.70742C7.44791 1.02559 5.66886 1.58245 3.98336 2.36399C3.96893 2.37016 3.95676 2.38071 3.94851 2.39417C0.577833 7.47623 -0.345524 12.4333 0.107443 17.3291C0.108718 17.3411 0.112369 17.3527 0.11818 17.3632C0.123991 17.3738 0.131843 17.383 0.14127 17.3905C2.10399 18.8577 4.29931 19.9776 6.63356 20.7025C6.64999 20.7075 6.66755 20.7072 6.68386 20.7018C6.70016 20.6964 6.71444 20.6861 6.72478 20.6723C7.22612 19.9836 7.67035 19.2543 8.05295 18.4918C8.0582 18.4814 8.06121 18.4699 8.06175 18.4582C8.0623 18.4465 8.06038 18.4348 8.05613 18.4239C8.05187 18.4129 8.04537 18.4031 8.03706 18.3949C8.02874 18.3867 8.0188 18.3803 8.00789 18.3763C7.30737 18.1057 6.62919 17.7795 5.97971 17.4007C5.96791 17.3937 5.958 17.3839 5.95085 17.3721C5.94371 17.3603 5.93955 17.3469 5.93874 17.3332C5.93793 17.3194 5.9405 17.3056 5.94622 17.293C5.95194 17.2805 5.96063 17.2695 5.97153 17.2612C6.1078 17.1581 6.24417 17.0509 6.37431 16.9426C6.38587 16.9329 6.39986 16.9268 6.4147 16.9248C6.42954 16.9227 6.44465 16.9249 6.45832 16.9311C10.7134 18.8917 15.32 18.8917 19.5247 16.9311C19.5384 16.9246 19.5537 16.922 19.5687 16.9239C19.5838 16.9257 19.598 16.9318 19.6098 16.9415C19.7399 17.0498 19.8763 17.1581 20.0136 17.2612C20.0245 17.2694 20.0333 17.2803 20.0391 17.2928C20.0449 17.3053 20.0476 17.3191 20.0469 17.3329C20.0462 17.3467 20.0421 17.3601 20.035 17.3719C20.028 17.3837 20.0181 17.3936 20.0064 17.4007C19.3584 17.7827 18.6796 18.1087 17.9772 18.3753C17.9663 18.3795 17.9564 18.3859 17.9482 18.3943C17.9399 18.4026 17.9335 18.4126 17.9293 18.4236C17.9251 18.4346 17.9233 18.4463 17.9239 18.4581C17.9246 18.4699 17.9277 18.4814 17.933 18.4918C18.322 19.2501 18.7656 19.9784 19.2602 20.6711C19.2702 20.6853 19.2844 20.696 19.3008 20.7016C19.3172 20.7072 19.3349 20.7075 19.3514 20.7023C21.6898 19.9799 23.889 18.8599 25.8542 17.3905C25.8637 17.3834 25.8717 17.3744 25.8775 17.364C25.8834 17.3536 25.8869 17.342 25.888 17.3301C26.4303 11.6701 24.9801 6.75364 22.044 2.39519ZM8.6884 14.3481C7.40732 14.3481 6.35175 13.1612 6.35175 11.7035C6.35175 10.2458 7.38685 9.05878 8.6884 9.05878C10.0001 9.05878 11.0455 10.2561 11.025 11.7034C11.025 13.1612 9.98987 14.3481 8.6884 14.3481ZM17.3277 14.3481C16.0466 14.3481 14.9911 13.1612 14.9911 11.7035C14.9911 10.2458 16.0262 9.05878 17.3277 9.05878C18.6395 9.05878 19.6848 10.2561 19.6643 11.7034C19.6643 13.1612 18.6395 14.3481 17.3277 14.3481Z"
        fill="white"
    />
</svg>