<svg width="260" height="215" viewBox="0 0 260 215" fill="none" xmlns="http://www.w3.org/2000/svg">
<path d="M231.656 115.924C298.856 33.9245 225.99 33.4245 181.156 43.4245C162.626 46.2531 56.2235 97.113 1.5 142.394C-20.5604 160.648 -34.2225 177.996 -30.3438 190.924C-25.1786 208.142 2.09143 216.21 38.5 213.868C59.4622 212.52 83.4538 207.721 108 199.231C123.824 193.758 139.878 186.751 155.5 178.146C183.562 162.688 210.228 142.072 231.656 115.924Z" fill="#EA552B"/>
<path d="M227 119.905C209.629 121.42 111.196 104.755 89 79" stroke="black"/>
<path d="M194 152.5C176.629 154.015 96.1958 120.755 74 95" stroke="black"/>
<path d="M259 69.9372C249.308 70.9349 194.385 59.9605 182 43" stroke="black"/>
<path d="M49.0346 213.938C39.8392 210.085 -3.11188 171.877 -4.82019 149" stroke="black"/>
<path d="M106.5 199C97.3046 195.146 11.5761 158.877 9.86774 136" stroke="black"/>
<path d="M130.5 190C121.305 186.146 50.3361 132.877 48.6278 110" stroke="black"/>
<path d="M254 83C244.308 83.9977 155.385 75.9605 143 59" stroke="black"/>
<path d="M87 0C87 0 88.4494 59.4676 114.5 65.3162C122 67 174 65.3162 174 65.3162C174 65.3162 117.682 72.462 120.58 98.5859C122.317 114.244 140.769 171 140.769 171C140.769 171 109.58 113.815 87 117.723C64.4202 121.632 33.231 171 33.231 171C33.231 171 47.6301 135.121 45.3142 105.684C43.2527 79.4804 0 65.3162 0 65.3162C0 65.3162 35.5 70 55.1567 65.3162C81.1326 59.1266 87 0 87 0Z" fill="#F1C657"/>
</svg>
