<svg width="377" height="52" viewBox="0 0 377 52" fill="none" xmlns="http://www.w3.org/2000/svg">
<path d="M26.1857 51.864C39.9377 51.864 51.4577 40.128 51.4577 26.232C51.4577 12.336 39.9377 0.671996 26.1857 0.671996C12.5057 0.671996 0.841656 12.336 0.841656 26.232C0.841656 40.128 12.5057 51.864 26.1857 51.864ZM26.1857 46.68C15.5297 46.68 6.52966 37.32 6.52966 26.232C6.52966 15.216 15.5297 5.856 26.1857 5.856C36.8417 5.856 45.7697 15.216 45.7697 26.232C45.7697 37.32 36.8417 46.68 26.1857 46.68ZM82.0318 51.864C94.1278 51.864 102.696 43.008 102.696 30.48V1.536H97.0798V30.48C97.0798 39.984 90.8158 46.752 82.0318 46.752C73.2478 46.752 66.9838 39.984 66.9838 30.48V1.536H61.3678V30.48C61.3678 43.008 69.9358 51.864 82.0318 51.864ZM152.887 17.376C152.887 8.088 144.895 1.536 134.671 1.536H114.583V51H120.199V33.216H133.303L145.831 51H152.239L139.423 32.712C147.271 31.056 152.887 25.152 152.887 17.376ZM120.199 6.864H133.663C141.727 6.864 147.199 10.752 147.199 17.376C147.199 24 141.727 27.888 133.663 27.888H120.199V6.864ZM196.477 51H202.093V6.864H218.725V1.536H179.845V6.864H196.477V51ZM263.141 6.864V1.536H227.645V51H263.141V45.672H233.333V28.464H260.189V23.136H233.333V6.864H263.141ZM313.034 51H319.154L297.338 1.536H291.218L269.402 51H275.522L280.49 39.768H308.066L313.034 51ZM282.794 34.44L294.314 8.448L305.762 34.44H282.794ZM328.217 51H333.833V13.632L352.193 48.12L370.553 13.632V51H376.169V1.536H370.553L352.193 36.024L333.833 1.536H328.217V51Z" fill="black"/>
</svg>
