<svg width="89" height="52" viewBox="0 0 89 52" fill="none" xmlns="http://www.w3.org/2000/svg">
<path d="M20.9185 51.864C33.0145 51.864 41.5825 43.008 41.5825 30.48V1.536H35.9665V30.48C35.9665 39.984 29.7025 46.752 20.9185 46.752C12.1345 46.752 5.8705 39.984 5.8705 30.48V1.536H0.2545V30.48C0.2545 43.008 8.8225 51.864 20.9185 51.864ZM70.6053 51.792C82.1253 51.792 88.0293 45.384 88.0293 37.536C88.0293 28.824 81.2613 25.44 71.8293 23.208C63.4053 21.192 58.5093 19.392 58.5093 14.28C58.5093 9.744 62.9733 5.712 69.0933 5.712C74.2773 5.712 79.1733 8.088 83.2773 12.048L86.7333 7.656C82.1973 3.48 76.7253 0.599997 69.3813 0.599997C59.8773 0.599997 52.8213 6.792 52.8213 14.712C52.8213 23.28 59.0853 26.376 69.0213 28.68C77.6613 30.696 82.3413 32.784 82.3413 38.04C82.3413 42.504 78.4533 46.68 70.8213 46.68C63.9093 46.68 58.7973 43.728 54.6213 39.552L51.0933 43.944C56.0613 48.84 62.4693 51.792 70.6053 51.792Z" fill="black"/>
</svg>
