<svg width="23" height="24" viewBox="0 0 23 24" fill="none" xmlns="http://www.w3.org/2000/svg">
<path id="Vector" opacity="0.75" d="M7.69294 19.3248C7.69294 19.424 7.58629 19.5034 7.45181 19.5034C7.29879 19.5183 7.19214 19.4389 7.19214 19.3248C7.19214 19.2255 7.29879 19.1461 7.43327 19.1461C7.57238 19.1312 7.69294 19.2106 7.69294 19.3248ZM6.25081 19.1014C6.21835 19.2007 6.31109 19.3148 6.4502 19.3446C6.57077 19.3942 6.70988 19.3446 6.7377 19.2454C6.76552 19.1461 6.67742 19.032 6.53831 18.9873C6.41774 18.9526 6.28327 19.0022 6.25081 19.1014ZM8.3004 19.0171C8.16593 19.0518 8.07319 19.1461 8.0871 19.2603C8.10101 19.3595 8.22157 19.424 8.36069 19.3893C8.49516 19.3545 8.5879 19.2603 8.57399 19.161C8.56008 19.0667 8.43488 19.0022 8.3004 19.0171ZM11.3516 0C4.91996 0 0 5.22573 0 12.109C0 17.6126 3.23669 22.3222 7.85988 23.9798C8.45343 24.0939 8.6621 23.7019 8.6621 23.3793C8.6621 23.0716 8.64819 21.3744 8.64819 20.3322C8.64819 20.3322 5.40222 21.0766 4.72056 18.8533C4.72056 18.8533 4.19194 17.4092 3.43145 17.037C3.43145 17.037 2.36956 16.2578 3.50565 16.2727C3.50565 16.2727 4.66028 16.372 5.29556 17.5531C6.31109 19.4687 8.0129 18.9178 8.67601 18.5903C8.78266 17.7963 9.08407 17.2454 9.41794 16.9179C6.82581 16.6102 4.21048 16.2082 4.21048 11.4341C4.21048 10.0693 4.5629 9.38447 5.30484 8.51104C5.18427 8.18846 4.79012 6.85846 5.4254 5.14136C6.39456 4.81878 8.625 6.48129 8.625 6.48129C9.55242 6.20338 10.5494 6.05946 11.5371 6.05946C12.5248 6.05946 13.5218 6.20338 14.4492 6.48129C14.4492 6.48129 16.6796 4.81382 17.6488 5.14136C18.2841 6.86342 17.8899 8.18846 17.7694 8.51104C18.5113 9.38943 18.9657 10.0743 18.9657 11.4341C18.9657 16.2231 16.2345 16.6052 13.6423 16.9179C14.069 17.3099 14.4306 18.0543 14.4306 19.2205C14.4306 20.893 14.4167 22.9624 14.4167 23.3694C14.4167 23.6919 14.63 24.084 15.219 23.9699C19.856 22.3222 23 17.6126 23 12.109C23 5.22573 17.7833 0 11.3516 0ZM4.50726 17.1164C4.44698 17.166 4.46089 17.2801 4.53972 17.3744C4.61391 17.4538 4.72056 17.4886 4.78085 17.424C4.84113 17.3744 4.82722 17.2603 4.74839 17.166C4.67419 17.0866 4.56754 17.0518 4.50726 17.1164ZM4.00645 16.7144C3.97399 16.7789 4.02036 16.8583 4.1131 16.9079C4.1873 16.9576 4.28004 16.9427 4.3125 16.8732C4.34496 16.8087 4.29859 16.7293 4.20585 16.6796C4.1131 16.6499 4.03891 16.6648 4.00645 16.7144ZM5.50887 18.4811C5.43468 18.5456 5.4625 18.6945 5.56915 18.7888C5.67581 18.9029 5.81028 18.9178 5.87056 18.8384C5.93085 18.7739 5.90302 18.625 5.81028 18.5307C5.70827 18.4166 5.56915 18.4017 5.50887 18.4811ZM4.98024 17.7516C4.90605 17.8012 4.90605 17.9302 4.98024 18.0444C5.05444 18.1585 5.17964 18.2082 5.23992 18.1585C5.31411 18.094 5.31411 17.965 5.23992 17.8508C5.175 17.7367 5.05444 17.6871 4.98024 17.7516Z" fill="black"/>
</svg>
