<svg width="26" height="20" viewBox="0 0 26 20" fill="none" xmlns="http://www.w3.org/2000/svg">
<path id="Vector" d="M22.044 1.68914C22.0367 1.675 22.0248 1.66392 22.0102 1.65789C20.3245 0.877022 18.5455 0.320203 16.7179 0.00136579C16.7013 -0.00175077 16.6842 0.000497555 16.6689 0.00779102C16.6536 0.0150845 16.641 0.0270518 16.6329 0.0419909C16.3907 0.485871 16.1708 0.941809 15.974 1.40807C14.004 1.10614 12.0001 1.10614 10.03 1.40807C9.832 0.940626 9.60858 0.484574 9.36078 0.0419909C9.35228 0.0273764 9.33962 0.0156848 9.32444 0.00843867C9.30927 0.00119258 9.29228 -0.00127209 9.2757 0.00136579C7.44791 0.319533 5.66886 0.876394 3.98336 1.65793C3.96893 1.66411 3.95676 1.67465 3.94851 1.68811C0.577833 6.77018 -0.345524 11.7273 0.107443 16.623C0.108718 16.635 0.112369 16.6466 0.11818 16.6572C0.123991 16.6677 0.131843 16.677 0.14127 16.6844C2.10399 18.1516 4.29931 19.2716 6.63356 19.9964C6.64999 20.0014 6.66755 20.0012 6.68386 19.9958C6.70016 19.9904 6.71444 19.9801 6.72478 19.9662C7.22612 19.2775 7.67035 18.5482 8.05295 17.7858C8.0582 17.7753 8.06121 17.7639 8.06175 17.7521C8.0623 17.7404 8.06038 17.7287 8.05613 17.7178C8.05187 17.7069 8.04537 17.697 8.03706 17.6888C8.02874 17.6806 8.0188 17.6743 8.00789 17.6703C7.30737 17.3996 6.62919 17.0734 5.97971 16.6947C5.96791 16.6877 5.958 16.6778 5.95085 16.6661C5.94371 16.6543 5.93955 16.6409 5.93874 16.6271C5.93793 16.6133 5.9405 16.5995 5.94622 16.587C5.95194 16.5744 5.96063 16.5635 5.97153 16.5551C6.1078 16.452 6.24417 16.3448 6.37431 16.2365C6.38587 16.2269 6.39986 16.2207 6.4147 16.2187C6.42954 16.2167 6.44465 16.2189 6.45832 16.2251C10.7134 18.1857 15.32 18.1857 19.5247 16.2251C19.5384 16.2185 19.5537 16.216 19.5687 16.2178C19.5838 16.2197 19.598 16.2258 19.6098 16.2355C19.7399 16.3438 19.8763 16.452 20.0136 16.5551C20.0245 16.5634 20.0333 16.5743 20.0391 16.5868C20.0449 16.5993 20.0476 16.613 20.0469 16.6268C20.0462 16.6406 20.0421 16.654 20.035 16.6659C20.028 16.6777 20.0181 16.6876 20.0064 16.6947C19.3584 17.0766 18.6796 17.4026 17.9772 17.6692C17.9663 17.6734 17.9564 17.6799 17.9482 17.6882C17.9399 17.6965 17.9335 17.7065 17.9293 17.7175C17.9251 17.7285 17.9233 17.7403 17.9239 17.7521C17.9246 17.7638 17.9277 17.7753 17.933 17.7858C18.322 18.544 18.7656 19.2724 19.2602 19.965C19.2702 19.9792 19.2844 19.9899 19.3008 19.9955C19.3172 20.0011 19.3349 20.0014 19.3514 19.9963C21.6898 19.2739 23.889 18.1538 25.8542 16.6844C25.8637 16.6774 25.8717 16.6683 25.8775 16.6579C25.8834 16.6475 25.8869 16.636 25.888 16.624C26.4303 10.9641 24.9801 6.04759 22.044 1.68914ZM8.6884 13.642C7.40732 13.642 6.35175 12.4551 6.35175 10.9974C6.35175 9.53974 7.38685 8.35273 8.6884 8.35273C10.0001 8.35273 11.0455 9.55005 11.025 10.9973C11.025 12.4551 9.98987 13.642 8.6884 13.642ZM17.3277 13.642C16.0466 13.642 14.9911 12.4551 14.9911 10.9974C14.9911 9.53974 16.0262 8.35273 17.3277 8.35273C18.6395 8.35273 19.6848 9.55005 19.6643 10.9973C19.6643 12.4551 18.6395 13.642 17.3277 13.642Z" fill="black"/>
</svg>
